<svg
		width="40"
		height="40"
		viewBox="0 0 40 40"
		fill="none"
		xmlns="http://www.w3.org/2000/svg"
	>
		<path
			d="M10 12.3313H30C30.4421 12.3313 30.866 12.5025 31.1786 12.8073C31.4911 13.112 31.6667 13.5253 31.6667 13.9563C31.6667 14.3873 31.4911 14.8006 31.1786 15.1053C30.866 15.4101 30.4421 15.5813 30 15.5813H10C9.55801 15.5813 9.13409 15.4101 8.82153 15.1053C8.50897 14.8006 8.33337 14.3873 8.33337 13.9563C8.33337 13.5253 8.50897 13.112 8.82153 12.8073C9.13409 12.5025 9.55801 12.3313 10 12.3313V12.3313ZM10 25.3313H30C30.4421 25.3313 30.866 25.5025 31.1786 25.8073C31.4911 26.112 31.6667 26.5253 31.6667 26.9563C31.6667 27.3873 31.4911 27.8006 31.1786 28.1053C30.866 28.4101 30.4421 28.5813 30 28.5813H10C9.55801 28.5813 9.13409 28.4101 8.82153 28.1053C8.50897 27.8006 8.33337 27.3873 8.33337 26.9563C8.33337 26.5253 8.50897 26.112 8.82153 25.8073C9.13409 25.5025 9.55801 25.3313 10 25.3313ZM10 18.8313H30C30.4421 18.8313 30.866 19.0025 31.1786 19.3073C31.4911 19.612 31.6667 20.0253 31.6667 20.4563C31.6667 20.8873 31.4911 21.3006 31.1786 21.6053C30.866 21.9101 30.4421 22.0813 30 22.0813H10C9.55801 22.0813 9.13409 21.9101 8.82153 21.6053C8.50897 21.3006 8.33337 20.8873 8.33337 20.4563C8.33337 20.0253 8.50897 19.612 8.82153 19.3073C9.13409 19.0025 9.55801 18.8313 10 18.8313Z"
			fill="#2C2D30"
		/>
	</svg>